<?xml version="1.0" encoding="utf-8"?>
<!-- Generator: Adobe Illustrator 19.0.0, SVG Export Plug-In . SVG Version: 6.00 Build 0)  -->
<svg version="1.1" id="Layer_1" xmlns="http://www.w3.org/2000/svg" xmlns:xlink="http://www.w3.org/1999/xlink" x="0px" y="0px"
	 viewBox="258.9 242.2 668.6 567.5" style="enable-background:new 258.9 242.2 668.6 567.5;" xml:space="preserve">
<style type="text/css">
	.st0{fill:#FFB7D5;}
	.st1{fill:#F5EBDD;}
	.st2{fill:#30242A;}
	.st3{fill:#4756DF;}
	.st4{fill:none;stroke:#30242A;stroke-width:4;stroke-linecap:round;stroke-miterlimit:10;}
	.st5{fill:#A15842;}
	.st6{clip-path:url(#SVGID_2_);}
	.st7{fill:none;stroke:#000000;stroke-width:4;stroke-linecap:round;stroke-linejoin:round;}
	.st8{fill:#FFBE21;}
	.st9{fill:#FF7235;}
	.st10{fill:none;stroke:#30242A;stroke-width:4;stroke-linecap:round;stroke-linejoin:round;}
	.st11{fill:none;stroke:#724342;stroke-width:4;stroke-linecap:round;stroke-linejoin:round;}
	.st12{fill:none;stroke:#000000;stroke-width:4;stroke-linecap:round;stroke-miterlimit:10;}
	.st13{fill:#F4E6D8;}
</style>
<g>
	<title>wfh_3</title>
	<rect x="346.9" y="242.2" class="st0" width="508" height="548"/>
	<rect x="316.9" y="760.2" class="st0" width="568" height="30"/>
	<rect x="376.9" y="272.2" class="st1" width="448" height="488"/>
	<rect x="354.9" y="451.2" class="st0" width="492" height="30"/>
	<path class="st2" d="M555,423l11,30.1l0,0l-121.2,44.2c-8.3,3-17.5-1.2-20.5-9.5l0,0c-3-8.3,1.2-17.5,9.5-20.5L555,423L555,423z"/>
	<path class="st2" d="M459.3,457.9l11,30.1l0,0l-25.5,9.3c-8.3,3-17.5-1.2-20.5-9.5l0,0c-3-8.3,1.2-17.5,9.5-20.5L459.3,457.9
		L459.3,457.9z"/>
	<circle class="st3" cx="578.3" cy="431.5" r="35"/>
	<path class="st4" d="M424.6,487.6c-42,15-94.6,37.2-129-6c-43-54,41-110,64-39c25.9,80.1-132.7,136.4-92,209
		c37,66,153.5-5.1,221,19c56,20,57.5,88.3,57.5,88.3"/>
	<path class="st5" d="M537.9,429.2c-2-12-10-21-15-22.2c-11.9-2.8-18.5,8-18.5,8s-9.4-8.6-22.6,3c0,0-15.1-4.7-21.7,8.9
		c0,0-6.7-2.5-14.2,11.4c-6.1,11.3-11,28.3-4,33c3,2,12,1,15-6c0,0,2.7,5,8,4c11-2,12-11,12-11s0.9,3.4,7,4c9.8,1,15-9,15-9
		s3.7,2.5,11,0c9.7-3.3,12.2-17.9,12.2-17.9L537.9,429.2z"/>
	
		<ellipse transform="matrix(-0.7215 -0.6924 0.6924 -0.7215 1129.4491 1568.8282)" class="st2" cx="880.2" cy="557.3" rx="50.4" ry="43.8"/>
	<g>
		<defs>
			
				<ellipse id="SVGID_1_" transform="matrix(-0.7215 -0.6924 0.6924 -0.7215 1129.4491 1568.8282)" cx="880.2" cy="557.3" rx="50.4" ry="43.8"/>
		</defs>
		<clipPath id="SVGID_2_">
			<use xlink:href="#SVGID_1_"  style="overflow:visible;"/>
		</clipPath>
		<g class="st6">
			<path class="st7" d="M828.9,563.2c0,0,35-22,40-62"/>
		</g>
	</g>
	
		<ellipse transform="matrix(-0.9533 -0.302 0.302 -0.9533 1174.4652 1216.1941)" class="st2" cx="681.3" cy="517.3" rx="43.8" ry="50.4"/>
	<path class="st3" d="M859,515.4c-0.9-3.2,54.2,30.8,43,42C891.5,568,863.6,531.4,859,515.4z"/>
	<path class="st3" d="M859.5,517.4c-1.8-3.9,45.7-52.3,53.6-38.8C920.7,491.6,861.3,521.2,859.5,517.4z"/>
	<path class="st5" d="M804.9,524.2c-13-4-41-6-57-8c-34-18-25-65-25-65c2-1,34.6-6.9,30.1-32.3c-4-23-31.1-23-45.9-6.8
		c0,0-21.1-8.9-27.1-37.9c0,0-17.8,2-30.2-1.2c-2.7,11.9-3.4,24.9-5.8,38.2c0,0-13,1-14,6c-1,5.3,9.3,11.5,9.3,11.5
		c-7,25.4-6,48.5,9.7,57.5c14,8,31,5,31,5l-2,24c-17.5,0.7-34.8,4.4-51,11c-33.2,13.5-111,65-111,65c6-20,30.6-83.1,40-123
		c4-17,8-33-2-34c-10.9-1.1-27,33-27,33l-68,25c-40.1,54.2-87,177-26,208c55,28,178-40,178-40l-11,100h200l45-213
		c0,0,0.2-0.2,0.5-0.6C831.4,534.4,814.5,527.1,804.9,524.2z"/>
	<path class="st8" d="M778.9,504.6H678.8l-0.9,10.6c-7.8,0.2-15.6,1.1-23.2,2.7c-2.6,0.5-5.3,1.1-8.1,1.8
		c-6.7,1.7-13.3,3.9-19.7,6.5c-1.4,0.6-2.9,1.2-4.5,1.9c-2.9,1.3-6,2.8-9.4,4.5c-22.6,11.5-53.6,30.6-74.4,43.9l27.1,54.2l13.6,27.2
		l7.3,14.5c14.9-7,24.4-12.2,24.4-12.2l-11,100h200l45-213c2.4-2.7,4.6-5.5,6.7-8.5v-0.3L778.9,504.6z"/>
	<path class="st9" d="M636.2,532.9l-13.8-4.7c-2.9,1.3-6,2.8-9.4,4.5l11.3,18.5l-22.4,30.6l29.6-12.2l16.5,30.4l1.9-33.5l28.6-6.1
		L653.9,545l0.8-27.1c-2.6,0.5-5.3,1.1-8.1,1.8L636.2,532.9z"/>
	<polygon class="st9" points="586.2,647.8 610.7,644.1 611,636.8 598.3,631 608.8,599.9 580.9,618.2 563.3,598.2 565.8,630.7 
		565.7,630.7 579.3,657.9 	"/>
	<polygon class="st9" points="740.5,564.1 751.7,601.9 762.9,564.1 798.6,553.9 763.9,539.6 763.9,506.9 744.5,532.5 717,519.2 
		733.3,546.7 707.8,568.2 	"/>
	<polygon class="st9" points="706.5,752 685.4,720.9 703.5,693.7 673.2,704.2 657.6,677.9 656,709.9 622.9,713.7 652.3,728.3 
		642.6,760.2 647.7,760.2 671,740.7 	"/>
	<polygon class="st9" points="716.7,688.9 741.2,667.5 768.7,685.8 756.5,655.2 777.9,631.7 747.3,636.8 733,611.3 730,638.9 
		701.4,637.9 725.9,656.2 	"/>
	<path class="st2" d="M679.9,374.2c6,29,27.1,37.9,27.1,37.9c14.9-16.2,41.9-16.2,45.9,6.8c4.5,25.4-28.1,31.3-30.1,32.3
		c0,0-9,47,25,65c16,2,44,4,57,8c9.5,2.9,26.5,10.3,40.5,22.4c5-5.6,43.1-51.5,7.5-96.4c-24.7-31.2-65.3-25.9-65.3-25.9
		c1.3-16.2,4-58.1-31.1-83.8s-79.7-12.2-95.9,8.1c-5.8,7.2-8.9,15.5-10.9,24.3C662.1,376.2,679.9,374.2,679.9,374.2z"/>
	<path class="st4" d="M525.1,466.4c-1.4,3.3-2.9,7-4.2,10.8c0,0-23,5-29.2,20.5"/>
	<line class="st10" x1="518.8" y1="589.2" x2="506.9" y2="620.3"/>
	<line class="st11" x1="612.9" y1="623.2" x2="608.8" y2="660.6"/>
	<path class="st4" d="M675.9,494.2c9.2-1.4,18.2-4.1,26.7-7.8"/>
	<line class="st4" x1="720.6" y1="429.6" x2="733.6" y2="421.6"/>
	<path class="st12" d="M789.1,423.9c-0.7,7.4-1.7,16.7-2.7,24"/>
	<path class="st13" d="M715.8,441.7l-3.6,22.1c-0.5,3.1,1.6,6.1,4.7,6.6c0.9,0.1,1.8,0.1,2.7-0.2l19.5-6.3c3-1,4.7-4.2,3.7-7.2
		c-0.3-0.9-0.8-1.7-1.4-2.3l-15.8-15.9c-2.2-2.3-5.9-2.3-8.1-0.1C716.6,439.3,716,440.5,715.8,441.7z"/>
	<path class="st10" d="M669.1,436.1c-0.9,13.2-14.5,14.1-17.7,4.7L669.1,436.1z"/>
	<path class="st10" d="M671.3,411.7c-2.4,1.2-11.1,1.4-13.9-5.5"/>
	<path class="st5" d="M804.9,524.2l-0.3,161.4c0,0-98.3-58.8-105.9-59.3c-5.6-0.3-9.8,12.3,0.3,22.8c-27.2-5-54.2-7.7-58.5,0.6
		c-2.6,5,1.6,10.2,1.6,10.2c-3.3,0.4-6.4,1.3-8.3,3.4c-4.4,5.1,1.6,13,1.6,13c-5.5,2.7-3.6,11,1.4,15c12.2,9.8,48.9,16.8,48.9,16.8
		c-13.2,1.6-38.5,3.1-37.2,10.6c2,11,58,11,58,11c21,14,38.3,13.6,38.3,13.6s51.3,52.6,103,65c133,23,29-226,1-258
		C831.5,530.3,804.9,524.2,804.9,524.2z"/>
	<path class="st10" d="M677.7,710.2c7-0.1,14.6-0.1,22.2,0"/>
	<path class="st10" d="M634.6,678.5c16.4,3,45.3,8.5,66.3,13.7"/>
	<path class="st10" d="M641.2,660.3c20.3,2.8,49.4,7,67.7,10.9"/>
	<path class="st10" d="M701.2,647.8c7.4,1.7,14.6,3.8,21.7,6.4"/>
	<path class="st8" d="M863.9,594.5l-1.9,33.5l-16.5-30.4l-29.6,12.2l22.4-30.6l-17.3-28.3l29.2,10l3.4-4.3c-1.4-2.2-3-4.3-4.7-6.4
		c-17.4-19.9-44-26-44-26l-0.2,119.9l8.9,8.7L838,626l-12.4,36.8l2.2,1.6l67.5-14.5c-6.4-19.5-13.9-38.7-22.5-57.4L863.9,594.5z"/>
	<path class="st9" d="M821.1,550.8l17.3,28.3l-22.4,30.6l29.6-12.2l16.5,30.4l1.9-33.5l9-1.9c-7.1-15.4-13.8-27.9-19.2-36l-3.4,4.3
		L821.1,550.8z"/>
	<polygon class="st9" points="825.7,662.8 838,626 813.6,652.8 804.7,644.1 804.6,669.4 827.8,664.4 	"/>
	<line class="st11" x1="802.6" y1="621.7" x2="802.6" y2="681.8"/>
	<path class="st10" d="M802.2,681.8c0,0,19.4,11.7,49.4,29.7"/>
	<path class="st4" d="M458,427.7c-2.7,10.1-5.1,24.3-3.1,38.9"/>
	<path class="st4" d="M479.2,418.7c-2.6,7.9-5.4,21.5-3.8,41.8"/>
	<path class="st4" d="M502.2,414.8c-2.9,8.4-6.7,21.6-5.1,38.4"/>
	<path class="st4" d="M525.1,422.9c0,0-0.3,6.2-0.8,13"/>
</g>
</svg>
