<?xml version="1.0" encoding="utf-8"?>
<!-- Generator: Adobe Illustrator 19.0.0, SVG Export Plug-In . SVG Version: 6.00 Build 0)  -->
<svg version="1.1" id="Layer_1" xmlns="http://www.w3.org/2000/svg" xmlns:xlink="http://www.w3.org/1999/xlink" x="0px" y="0px"
	 viewBox="408.9 -87 1034.8 919" style="enable-background:new 408.9 -87 1034.8 919;" xml:space="preserve">
<style type="text/css">
	.st0{fill:#FFB7D5;}
	.st1{fill:#CA7358;}
	.st2{fill:none;stroke:#FFB7D5;stroke-width:4;stroke-linecap:round;stroke-linejoin:round;}
	.st3{fill:#F5EBDD;}
	.st4{fill:#30242A;}
	.st5{fill:#A15842;}
	.st6{fill:none;stroke:#A15842;stroke-width:4;stroke-miterlimit:10;}
</style>
<title>wfh_8</title>
<path class="st0" d="M969-58.1h11.5c90.7,0,164.3,73.6,164.3,164.3v313.5l0,0H804.6l0,0V106.2C804.6,15.5,878.2-58.1,969-58.1
	C969-58.1,969-58.1,969-58.1z"/>
<path class="st1" d="M1036.5,231v193.6H885.5V231H1036.5 M1040.5,227H881.5v201.6h158.9V227z"/>
<rect x="881.5" y="227" class="st1" width="158.9" height="41.7"/>
<path class="st1" d="M880.7,126.3v299.2h-90.8V126.3H880.7 M884.7,122.3h-98.8v307.2h98.8V122.3z"/>
<path class="st1" d="M1161.3,65.8v358.8h-119.9V65.8H1161.3 M1165.3,61.8h-127.9v366.8h127.9V61.8z"/>
<path class="st1" d="M1089.3,110.7h1.1c9,0,16.4,7.3,16.4,16.4l0,0V164l0,0h-33.9l0,0v-36.9C1072.9,118,1080.3,110.7,1089.3,110.7
	C1089.3,110.7,1089.3,110.7,1089.3,110.7z"/>
<line class="st2" x1="1069.1" y1="139.8" x2="1110.7" y2="139.8"/>
<path class="st3" d="M1089.3,206.3h1.1c9,0,16.4,7.3,16.4,16.4l0,0v36.9l0,0h-33.9l0,0v-36.9
	C1072.9,213.7,1080.3,206.3,1089.3,206.3C1089.3,206.3,1089.3,206.3,1089.3,206.3z"/>
<line class="st2" x1="1069.1" y1="235.4" x2="1110.7" y2="235.4"/>
<path class="st3" d="M1089.3,301.9h1.1c9,0,16.4,7.3,16.4,16.4l0,0v36.9l0,0h-33.9l0,0v-36.9
	C1072.9,309.3,1080.3,301.9,1089.3,301.9L1089.3,301.9L1089.3,301.9z"/>
<line class="st2" x1="1069.1" y1="331" x2="1110.7" y2="331"/>
<path class="st4" d="M1089.3,397.6h1.1c9,0,16.4,7.3,16.4,16.4l0,0v33.9l0,0h-33.9l0,0v-33.9
	C1072.9,404.9,1080.3,397.6,1089.3,397.6C1089.3,397.6,1089.3,397.6,1089.3,397.6z"/>
<rect x="1037.3" y="61.8" class="st1" width="127.9" height="16"/>
<rect x="785.8" y="114.6" class="st1" width="98.8" height="16"/>
<rect x="910.1" y="306.5" class="st3" width="33.9" height="43.6"/>
<line class="st2" x1="906.3" y1="325.8" x2="947.9" y2="325.8"/>
<line class="st2" x1="927.1" y1="352" x2="927.1" y2="325.8"/>
<rect x="910.1" y="385.2" class="st1" width="33.9" height="43.6"/>
<line class="st2" x1="906.3" y1="404.6" x2="947.9" y2="404.6"/>
<line class="st2" x1="927.1" y1="430.8" x2="927.1" y2="404.6"/>
<rect x="974.1" y="306.5" class="st4" width="33.9" height="43.6"/>
<line class="st2" x1="970.2" y1="325.8" x2="1011.9" y2="325.8"/>
<line class="st2" x1="991" y1="352" x2="991" y2="325.8"/>
<rect x="974.1" y="385.2" class="st3" width="33.9" height="43.6"/>
<line class="st2" x1="970.2" y1="404.6" x2="1011.9" y2="404.6"/>
<line class="st2" x1="991" y1="430.8" x2="991" y2="404.6"/>
<circle class="st3" cx="904.1" cy="35.1" r="25.2"/>
<path class="st3" d="M981.5-87H968C861.7-87,775.6-0.9,775.6,105.4v343.5h398.3V105.4C1173.9-0.9,1087.7-87,981.5-87z M960.2,419.8
	H804.6V177.6h155.5V419.8z M960.2,148.5H804.6v-42.1C804.6,19,873-53,960.2-57.7V148.5z M1144.8,419.8H989.3V177.6h155.5V419.8z
	 M1144.8,148.5H989.3V-57.7c87.2,4.7,155.5,76.7,155.5,164.1V148.5z"/>
<path class="st4" d="M1085,832L1085,832c-4.2,0-7.7-3.4-7.7-7.7c0-0.8,0.1-1.6,0.4-2.4l24-73.1c1-3.1,4-5.3,7.3-5.3h16.8
	c4.2,0,7.7,3.4,7.7,7.7c0,1.3-0.3,2.6-1,3.7l-40.9,73.1C1090.3,830.5,1087.8,832,1085,832z"/>
<path class="st4" d="M1406.5,832L1406.5,832c4.2,0,7.7-3.4,7.7-7.7c0-0.8-0.1-1.6-0.4-2.4l-24-73.1c-1-3.1-4-5.3-7.3-5.3h-16.8
	c-4.2,0-7.7,3.4-7.7,7.7c0,1.3,0.3,2.6,1,3.7l40.9,73.1C1401.2,830.5,1403.8,832,1406.5,832z"/>
<rect x="1049.2" y="548.7" class="st5" width="394.4" height="225.8"/>
<rect x="1078.3" y="577.8" class="st0" width="336.3" height="167.7"/>
<line class="st6" x1="1246.1" y1="574.9" x2="1246.1" y2="748.4"/>
<circle class="st4" cx="1285.7" cy="661.6" r="10.2"/>
<circle class="st4" cx="1207.1" cy="661.6" r="10.2"/>
</svg>
