<?xml version="1.0" encoding="utf-8"?>
<!-- Generator: Adobe Illustrator 19.0.0, SVG Export Plug-In . SVG Version: 6.00 Build 0)  -->
<svg version="1.1" id="Layer_1" xmlns="http://www.w3.org/2000/svg" xmlns:xlink="http://www.w3.org/1999/xlink" x="0px" y="0px"
	 viewBox="408.9 -87 1034.8 919" style="enable-background:new 408.9 -87 1034.8 919;" xml:space="preserve">
<style type="text/css">
	.st0{fill:#FFB7D5;}
	.st1{fill:#FFBE21;}
	.st2{fill:#A15842;}
	.st3{fill:none;stroke:#A15842;stroke-width:4;stroke-linecap:round;stroke-miterlimit:10;}
	.st4{fill:none;stroke:#30242A;stroke-width:4;stroke-linecap:round;stroke-linejoin:round;}
	.st5{fill:#3EC1F3;}
	.st6{fill:#30242A;}
	.st7{fill:none;stroke:#F5EBDD;stroke-width:4;stroke-linecap:round;stroke-linejoin:round;}
	.st8{fill:none;stroke:#30242A;stroke-width:4;stroke-linecap:round;stroke-miterlimit:10;}
	.st9{fill:#4756DF;}
</style>
<title>wfh_8</title>
<g>
	<circle class="st0" cx="447.6" cy="793" r="38.8"/>
	<path class="st1" d="M1312.1,477c0,1.1-0.2,2.1-0.6,3.1c-3,6.8-15.8,7.8-28.6,2.3c-10.7-4.7-17.9-12.5-18.3-18.9l0,0v85.3h47.5
		L1312.1,477L1312.1,477z"/>
	<path class="st2" d="M1293.8,457.7c-12.8-5.6-25.6-4.6-28.6,2.3c-0.5,1.1-0.7,2.3-0.6,3.6c0.3,6.4,7.6,14.3,18.3,18.9
		c12.8,5.6,25.6,4.6,28.6-2.3c0.4-1,0.6-2,0.6-3.1C1312.1,470.5,1304.7,462.4,1293.8,457.7z"/>
	<path class="st1" d="M1348.5,505.1c-0.3,6.4-7.6,14.3-18.3,18.9c-12.8,5.6-25.6,4.6-28.6-2.3c-0.4-1-0.6-2-0.6-3.1l0,0v30h47.5
		L1348.5,505.1L1348.5,505.1z"/>
	<path class="st2" d="M1347.8,501.6c-3-6.8-15.8-7.8-28.6-2.3c-10.9,4.8-18.3,12.9-18.3,19.4c0,1.1,0.2,2.1,0.6,3.1
		c3,6.8,15.8,7.8,28.6,2.3c10.7-4.7,17.9-12.5,18.3-18.9C1348.5,503.9,1348.3,502.7,1347.8,501.6z"/>
	<line class="st3" x1="1302.4" y1="548.7" x2="1302.4" y2="519.7"/>
	<line class="st4" x1="1288.3" y1="451.3" x2="1288.3" y2="467.8"/>
	<line class="st4" x1="1324.7" y1="493" x2="1324.7" y2="510.5"/>
	<g>
		<path class="st5" d="M1201,346.4c0,0-7.9,17.7-28.5,17.7s-28.5-17.7-28.5-17.7s-58,132.6-1,202.3h58.9
			C1258.9,479,1201,346.4,1201,346.4z"/>
		<path class="st6" d="M1172.5,364.1c20.6,0,28.5-17.7,28.5-17.7h-57C1143.9,346.4,1151.8,364.1,1172.5,364.1z"/>
		<path class="st7" d="M1225.7,464.5c-32.1,0.6-70,12.2-99.2,53"/>
		<path class="st7" d="M1121.4,432c21.5-5.3,62.3-10.3,101.8-0.8"/>
		<path class="st7" d="M1223,498.5c-14.3,0.2-40.8,16.4-37.9,49.2"/>
		<path class="st8" d="M1168.9,358.2c-0.6-14.3-4.4-70.9-26.9-104.1"/>
		
			<ellipse transform="matrix(-0.8613 -0.5081 0.5081 -0.8613 1945.6401 1114.1494)" class="st6" cx="1124.9" cy="291.5" rx="45.6" ry="10.3"/>
		
			<ellipse transform="matrix(-0.4953 -0.8687 0.8687 -0.4953 1577.9784 1219.5912)" class="st6" cx="1143.3" cy="151.4" rx="25.2" ry="8.8"/>
		<path class="st9" d="M1081.5,224.6c2.3-5,12.9-5.4,25.9-1.5c-8-14.3-10.4-27.6-5.2-31s16.5,4.2,26.3,17.3c1.7-13.4,6.4-23,12-23.1
			c7.1,0,12.8,15.6,12.9,34.8c0,5.5-0.4,11-1.5,16.4c-10.2-4.7-22.3-0.2-26.9,10c-1.2,2.6-1.8,5.4-1.8,8.2c-5.2-1.3-10.2-3-15.1-5.2
			C1090.5,242.7,1078.6,231.1,1081.5,224.6z"/>
		<path class="st6" d="M1132.4,239c5.8-3.8,13.2-4.3,19.5-1.4c-1.7,9-4.8,15.6-8.6,17.8c-3.6,2.6-11.1,2.7-20.2,0.5
			C1123.2,249,1126.7,242.7,1132.4,239z"/>
		<path class="st8" d="M1176.4,357.3c2.8-15.7,17.1-92.9,40.1-136.6"/>
		
			<ellipse transform="matrix(-0.9513 -0.3082 0.3082 -0.9513 2327.344 989.0951)" class="st6" cx="1241.8" cy="310.8" rx="55" ry="9.7"/>
		<path class="st9" d="M1212.2,153.1c5.5-0.5,11.1,8.6,14.1,21.8c8.5-14,18.9-22.7,24.5-19.7s4.4,16.4-2.2,31.4
			c12.6-5.1,23.2-5.7,26-0.9c3.5,6.1-7.3,18.8-24,28.3c-4.8,2.7-9.8,5-15,6.8c-0.9-11.2-10.8-19.5-22-18.5c-2.8,0.2-5.5,1.1-8,2.4
			c-1.4-5.1-2.4-10.4-2.8-15.7C1200.8,169.8,1205.1,153.8,1212.2,153.1z"/>
		<path class="st6" d="M1224.6,204.5c6.2,3.2,10.2,9.4,10.8,16.3c-8.7,2.9-16,3.4-19.7,1.2c-4-1.8-7.8-8.4-10.3-17.4
			C1211.4,201.4,1218.6,201.4,1224.6,204.5z"/>
		<path class="st9" d="M1271.8,244.7L1271.8,244.7c-10.4,4.4-15.3,16.3-11.1,26.6c3.8,9.1,13.5,14.2,23.2,12.1v0.1
			c-26.3,8.3-50.4,6.3-53.8-4.5S1245.4,252.9,1271.8,244.7z"/>
		<path class="st0" d="M1265.5,278.3c5.1-2,7.5-7.8,5.5-12.8c-1.8-4.5-6.7-7.1-11.4-5.9c1.3-6.7,5.9-12.2,12.2-14.8l12.1,38.7
			C1277.3,284.9,1270.4,283,1265.5,278.3z"/>
		<path class="st6" d="M1271.2,266.2c1.5,4.9-0.9,10.2-5.7,12.1c-5.1-4.8-7.3-11.9-5.9-18.8C1264.6,258.4,1269.7,261.3,1271.2,266.2
			z"/>
	</g>
</g>
</svg>
