<?xml version="1.0" encoding="utf-8"?>
<!-- Generator: Adobe Illustrator 19.0.0, SVG Export Plug-In . SVG Version: 6.00 Build 0)  -->
<svg version="1.1" id="Layer_1" xmlns="http://www.w3.org/2000/svg" xmlns:xlink="http://www.w3.org/1999/xlink" x="0px" y="0px"
	 viewBox="292.1 156.9 604.2 724.9" style="enable-background:new 292.1 156.9 604.2 724.9;" xml:space="preserve">
<style type="text/css">
	.st0{fill:#FFBE21;}
	.st1{fill:#F5EBDD;}
	.st2{fill:#EAA58B;}
	.st3{fill:#A15842;}
	.st4{fill:#30242A;}
	.st5{fill:#4756DF;}
	.st6{fill:#FFB7D5;}
	.st7{fill:none;stroke:#30242A;stroke-width:4;stroke-linecap:round;stroke-linejoin:round;}
	.st8{fill:none;stroke:#A15842;stroke-width:4;stroke-linecap:round;stroke-miterlimit:10;}
	.st9{fill:none;stroke:#4756DF;stroke-width:4;stroke-linecap:round;stroke-miterlimit:10;}
	.st10{fill:none;stroke:#A15842;stroke-width:8;stroke-miterlimit:10;}
	.st11{fill:#FF7235;}
	.st12{fill:none;stroke:#A15842;stroke-width:8;stroke-linecap:round;stroke-miterlimit:10;}
</style>
<title>wfh_3</title>
<g id="Layer_10">
	<rect x="358.3" y="255.6" class="st0" width="508" height="548"/>
	<rect x="328.3" y="773.6" class="st0" width="568" height="30"/>
	<rect x="388.3" y="285.6" class="st1" width="448" height="488"/>
	<rect x="366.3" y="464.6" class="st0" width="492" height="30"/>
	<path class="st2" d="M472.8,509.9c0,0,22.6,1.3,39.5-8.3c16-9,18.6-23.1,13-51c0,0,10-6,9-12c-0.7-4-12-8-12-8
		c-1.4-7.6-3.2-19.1-6.1-30.9c-7.3,1.4-14.7,2.2-22.2,2.3c-22.3,25.1-46.7,26.6-46.7,26.6c-3.5-5.3-8.3-9.6-13.9-12.5l-33.3,13.3
		c-0.3,1.1-0.6,2.2-0.8,3.3c-4.6,26.3,28,36,28,36c-6.6,25.1-28,35-44.1,38.9l1.4,12.5h89.9L472.8,509.9z"/>
	<path class="st2" d="M688,709c78-23,83-207,83-207l-40.7-52.4c0,0,7.7-37.6-0.3-44.6c-9.7-8.5-21.8,18-35,51
		c-13.8,34.7-39.7,136.6-41.7,143.6c0,0-19.4-9.1-42.4-19.7l-3.3,10.7l-29.7,100C610.5,703.9,656.6,718.3,688,709z"/>
	<path class="st3" d="M427.3,468.6c0,0-32.6-9.8-28-36c0.2-1.1,0.5-2.2,0.8-3.3l-24.3,9.6c0,0.7,0.1,1.3,0.2,2l7.2,66.5
		C399.3,503.6,420.7,493.8,427.3,468.6z"/>
	<path class="st3" d="M447.3,428.6c0,0,24.4-1.5,46.7-26.6c7.4-0.1,14.9-0.8,22.2-2.3c-1.2-5-2.7-10-4.4-14.9l-78.4,31.3
		C439,419.1,443.8,423.4,447.3,428.6z"/>
	<path class="st4" d="M400.1,429.4l33.3-13.3C419.6,409.1,404.5,414.2,400.1,429.4z"/>
	<path class="st4" d="M433.4,416.1l78.4-31.3c-2.7-7.7-6.1-14.8-10.5-20.2c-16.7-20.9-57.8-36.1-94.1-9.6
		c-34.9,25.5-32.8,66.1-31.4,84l24.3-9.7C404.5,414.2,419.6,409.1,433.4,416.1z"/>
	<path class="st5" d="M526.8,564l-2.4-20.6c-27.5-8-47.4-8.4-47.4-8.4l-2.5-15h-89.9l1.4,13c-8.9,0-17.8,0.7-26.6,2.3L372,564H526.8
		z"/>
	<polygon class="st5" points="398.2,624 533.8,624 530.3,594 385.1,594 	"/>
	<path class="st5" d="M411.3,654l13.1,30h116.1l-1.2-11.4l0.1,0l-2.2-18.7H411.3z"/>
	<path class="st5" d="M446.3,729.6c0,0,65.2,4.3,100,10l-2.7-25.6H439.2L446.3,729.6z"/>
	<polygon class="st6" points="530.3,594 526.8,564 372,564 385.1,594 	"/>
	<polygon class="st6" points="398.2,624 411.3,654 537.2,654 533.8,624 	"/>
	<polygon class="st6" points="427.3,687.6 439.2,714 543.6,714 540.5,684 425.6,684 	"/>
	<path class="st5" d="M610.8,579.9c-11.4-5.2-23.6-10.9-34.8-15.9c-9.8-4.4-18.8-8.4-25.8-11.4c-8.4-3.6-17.1-6.7-25.9-9.2l2.4,20.6
		l3.5,30l3.5,30l3.5,30l2.2,18.7c1,0.5,9.8,5.3,23.2,11.3c4.4,2,9.4,4.2,14.7,6.3l0.7,0.3l29.7-100L610.8,579.9L610.8,579.9z"/>
	<path class="st2" d="M439.2,714l-11.9-26.4l-1.7-3.6h-1.2l2.6,6l-97.5,35.4c16.4,32.7,35,60.8,48.8,74.2
		c48,47,173.7,17.7,173.7,17.7s14.3,11.3,33.3,15.3c34,67,52.7,43.7,52.7,43.7s12,13,21-1c18,1,17-10,1-48
		c18,22,35.9,22.3,36.3,16.3c1-16-44-69-85.3-86.3c-24.8-10.4-64.7-17.7-64.7-17.7l0,0c-34.8-5.6-100-10-100-10L439.2,714z"/>
	<path class="st5" d="M359.4,535.3c-18.5,3.2-42.3,10.7-56.1,28.7c-6.1,8-10.2,18-11,30.6c-2.3,36.4,15.6,87.6,37.2,130.8L427,690
		L359.4,535.3z"/>
	<line class="st7" x1="456" y1="521.4" x2="458" y2="539"/>
	<line class="st7" x1="439" y1="521.4" x2="441" y2="539"/>
	<path class="st8" d="M472.8,512c-6.5-0.5-12.9-2.2-18.8-5"/>
	<path class="st8" d="M662.2,826.9c-3.8-8.5-8.3-17.8-12.2-24.8"/>
	<path class="st8" d="M631.2,812c12.5,21.9,22.1,46.6,28,63.3"/>
	<path class="st8" d="M609,825c9,16.5,19.2,36.4,26.6,51.3"/>
	<line class="st7" x1="540.6" y1="672.3" x2="537" y2="635"/>
	<line class="st8" x1="651" y1="599.2" x2="644.3" y2="625.6"/>
	<line class="st7" x1="385.6" y1="531" x2="398" y2="531"/>
	<line class="st7" x1="479.1" y1="535.1" x2="481" y2="546.4"/>
	<line class="st9" x1="500.6" y1="362.3" x2="374.6" y2="410.3"/>
	<line class="st8" x1="444.6" y1="727.3" x2="417.3" y2="725.6"/>
	<line class="st7" x1="445.6" y1="728.3" x2="408" y2="645"/>
	<path class="st8" d="M733.7,440.9c-2.3,9.1-5.5,21-8.7,30.1c0,0,17,30-1,65"/>
	<path class="st10" d="M773.9,736.8h-43.4c-0.6,0-1.1-0.5-1.1-1.1v-31.8c0-0.6,0.5-1.1,1.1-1.1h43.4c9.4,0,17,7.6,17,17l0,0
		C790.9,729.1,783.3,736.7,773.9,736.8C773.9,736.8,773.9,736.8,773.9,736.8z"/>
	<path class="st11" d="M717.6,697.5c-35.8,0-52.4-28.5-52.4-28.5l24.1,104.7h56.6L769.9,669C758.6,686.9,738.8,697.7,717.6,697.5z"
		/>
	<path class="st3" d="M717.6,697.5c21.2,0.2,41-10.6,52.4-28.5H665.2C665.2,669,681.8,697.5,717.6,697.5z"/>
	<line class="st8" x1="434" y1="447" x2="419" y2="436"/>
	<circle class="st4" cx="504.7" cy="430.5" r="4.2"/>
	<line class="st7" x1="348.5" y1="448.3" x2="539.1" y2="376"/>
	<path class="st8" d="M500.7,458.8c1,2,6.6,6.6,12,3.5"/>
	<path class="st12" d="M767.8,537.1c-2.4-2.4-4.3-6.6-3.8-13.1c0,0-9,5-15,0c-7.9-6.6-5-16-5-16s-9,3-13-4c-4.3-7.6,1-18,1-18
		s-7.2,1-9-6c-2.3-8.9,2.5-16.9,7.6-22.8"/>
	<path class="st4" d="M752.7,295.9l-141.9,53.9c-9.7,3.7-20.5-1.2-24.2-10.9l-39-102.6c-3.7-9.7,1.2-20.5,10.9-24.2l141.9-53.9
		c9.7-3.7,20.5,1.2,24.2,10.9l39,102.6C767.3,281.4,762.4,292.2,752.7,295.9z"/>
	<path class="st4" d="M788.6,602L788.6,602c-4.1,1.6-8.8-0.5-10.3-4.6L674.8,325c-1.6-4.1,0.5-8.8,4.6-10.3l0,0
		c4.1-1.6,8.8,0.5,10.3,4.6l103.4,272.3C794.8,595.8,792.7,600.4,788.6,602z"/>
	<path class="st6" d="M672.4,222.1c-9.6-4.1-20.7,0.3-24.8,9.9l-2.2,5.1l-5.1-2.2c-9.6-4-20.7,0.6-24.6,10.2
		c-3.9,9.4,0.4,20.3,9.7,24.4l5.1,2.2l34.6,14.9l14.9-34.6l2.2-5.1C686.4,237.4,682,226.3,672.4,222.1
		C672.5,222.1,672.4,222.1,672.4,222.1z"/>
	<path class="st2" d="M758.3,439.1c9.3,5.6,7.3,16.4,7.3,16.4s18.7-2.6,18.2,16.6c0,0,14.9,6.9,8.1,21.8c0,0,10.3,2.7,5.1,19.1
		c-5,16-15.2,26.1-22,27c-3.6,0.5-12-3-11-16c0,0-9,5-15,0c-7.9-6.6-5-16-5-16s-9,3-13-4c-4.3-7.6,1-18,1-18s-7.2,1-9-6
		c-3.8-14.8,12.1-27.3,16-31l-3-8C736,441,749,433.5,758.3,439.1z"/>
	<path class="st8" d="M728.5,489.6c11.3-6.7,28.5-19,38.2-33.7"/>
	<path class="st8" d="M741.7,510.4c16.5-9.6,31-22.2,42.8-37.1"/>
	<path class="st8" d="M764.6,525.3c8-6,19-17,28.3-29.7"/>
</g>
</svg>
