<?xml version="1.0" encoding="utf-8"?>
<!-- Generator: Adobe Illustrator 19.0.0, SVG Export Plug-In . SVG Version: 6.00 Build 0)  -->
<svg version="1.1" id="Layer_1" xmlns="http://www.w3.org/2000/svg" xmlns:xlink="http://www.w3.org/1999/xlink" x="0px" y="0px"
	 viewBox="408.9 -87 1034.8 919" style="enable-background:new 408.9 -87 1034.8 919;" xml:space="preserve">
<style type="text/css">
	.st0{fill:#A15842;}
	.st1{fill:#FFBE21;}
	.st2{fill:#4856DF;}
	.st3{fill:#3EC1F3;}
	.st4{fill:none;stroke:#30242A;stroke-width:4;stroke-linecap:round;stroke-linejoin:round;}
	.st5{fill:#4756DF;}
	.st6{clip-path:url(#SVGID_2_);}
	.st7{fill:#30242A;}
	.st8{fill:none;}
	.st9{fill:none;stroke:#30242A;stroke-width:8;stroke-linecap:round;stroke-linejoin:round;}
	.st10{fill:none;stroke:#000000;stroke-width:4;stroke-linecap:round;stroke-miterlimit:10;}
	.st11{fill:#F4E6D8;}
</style>
<title>wfh_8</title>
<g>
	<rect x="564.8" y="738" class="st0" width="142.5" height="16.5"/>
	<path class="st1" d="M730.7,823.5l-35.3-211.8H717c4.8,0,8.7-3.9,8.7-8.7c0-4.8-3.9-8.7-8.7-8.7H555.2c-4.8,0-8.7,3.9-8.7,8.7
		c0,4.8,3.9,8.7,8.7,8.7h21.4l-35.3,211.8c-0.7,4,2,7.8,6,8.4c0.4,0.1,0.8,0.1,1.2,0.1l0,0c3.4,0,6.4-2.4,7.1-5.8l46.8-214.5h67.1
		l46.8,214.5c0.7,3.4,3.7,5.8,7.2,5.8l0,0c4,0,7.3-3.3,7.3-7.3C730.8,824.3,730.8,823.9,730.7,823.5z"/>
	<path class="st0" d="M717,611.7c4.8,0,8.7-3.9,8.7-8.7c0-4.8-3.9-8.7-8.7-8.7H555.2c-4.8,0-8.7,3.9-8.7,8.7c0,4.8,3.9,8.7,8.7,8.7
		h21.4v0.3h25.8l0.1-0.3h67.1l0.1,0.3h25.8v-0.3H717z"/>
	<path class="st2" d="M726.6,737.7h103c1.3-21.9,5.8-50.9,9.6-90.1c3.4-34.8,6.3-63.9,6.1-88c-0.3-40.1-103,8.4-103,8.4
		c0,8.8,1.8,17.2,1.8,25.3c0.1,21.2-10.6,39.2-18.3,64.8c-11.6,38.8-1.9,79.5-1.9,79.5H726.6z"/>
	<path class="st3" d="M835.1,821.1h-90.2c-2.9,0.9-4.5,4-3.6,6.9c0.7,2.3,2.8,3.8,5.2,3.8l132.7,0.2c1.2-12.9-6.2-22.6-26.8-37
		C840.6,805.2,835.1,821.1,835.1,821.1z"/>
	<path class="st0" d="M847.8,791.9c-4.3-2.8-8-6.3-10.9-10.5c-7-10.3-8.5-24.1-7.3-43.6h-89.3c0.2,14.6,1.2,29.1,3.2,43.6
		c2.3,16.4,5.4,27.6,7.8,39.5h-4.7c-0.6,0-1.1,0.1-1.7,0.3h90.2c0,0,5.5-15.8,17.3-26C850.9,794,849.4,793,847.8,791.9z"/>
	<path class="st4" d="M830.6,720.2c-5.5-11-9.3-22.8-11.2-34.9c-6.5-45.4-2.7-68.6-21.1-89h-53.9"/>
	<path class="st2" d="M864.2,741.6l0.1,0.2l79.5-37.2c-6.2-18.5-12.7-43.2-23.3-75.4c-10-30.2-16.5-52.7-22.8-70.2
		c-19.3,13.9-46.3,9.5-60.2-9.8c-12.2-16.9-10.5-40,3.9-55C799,475,648.2,462.5,648.2,462.5l-85.3-12.6c-4.5,7.4-8.3,19.2-10.4,33
		h29.8v31.9c0,13.4-10.9,24.3-24.3,24.3h-1.7c-0.4,0-0.8,0-1.2,0c8.1,30,29.1,55.3,71.8,55.3h172.5c18.4,20.3,14.5,43.6,21.1,89
		c5.3,37.1,30.7,64.5,30.7,64.5L864.2,741.6z"/>
	<path class="st3" d="M985.4,784.2l-79.2,35.9c-3,2.1-3.7,6.1-1.6,9.1c1.8,2.6,5.3,3.5,8.1,2.2l120.2-56c-4.7-13-16.8-18-45.5-23
		l-1.2-0.2C983.8,762.7,983.5,773.6,985.4,784.2z"/>
	<path class="st0" d="M986.1,752.1c-8.3-1.6-14.7-4.3-20.1-8.5c-9.9-7.7-15.9-20.2-22.2-39l-79.5,37.2c6.7,15.5,16.2,31.8,25.2,46
		c7.9,12.4,15.4,23.2,20.4,30.4l-2.9,1.4c-0.3,0.2-0.6,0.3-0.9,0.6l79.2-35.9C983.5,773.6,983.7,762.7,986.1,752.1z"/>
	<path class="st3" d="M872.6,567.2c9,0,17.9-2.8,25.2-8.2c-12.4-34.9-23.2-49.4-55.7-64.5l-0.6-0.3c-16.5,17.2-15.9,44.5,1.3,61
		C850.8,562.8,861.5,567.1,872.6,567.2L872.6,567.2z"/>
	<path class="st3" d="M558,539c13.4,0,24.3-10.9,24.3-24.3v-31.9h-29.8c-2.6,17.3-2.5,37.6,2.6,56.2c0.4,0,0.8,0,1.2,0L558,539z"/>
	<line class="st4" x1="798" y1="596.7" x2="827" y2="596.7"/>
	<path class="st4" d="M923,288.5c0,0-52.3-60.1-114.2-81.9"/>
	<path class="st5" d="M758.9,230.1c-1.9-4.6,4.4-11.8,15-17.9c-14.3-3.6-24.5-10.2-23.4-15.8s12.9-8.2,27.5-6.5
		c-7.7-9.4-11.1-18.4-7.7-22c4.3-4.6,18.1,1.2,30.7,13c11,10.3,17.5,21.8,16.1,27.6c-0.8,5.9-10.9,14.4-24.8,20.1
		C776.2,235.4,761.3,236,758.9,230.1z"/>
	<g>
		<defs>
			<path id="SVGID_1_" d="M758.9,230.1c-1.9-4.6,4.4-11.8,15-17.9c-14.3-3.6-24.5-10.2-23.4-15.8s12.9-8.2,27.5-6.5
				c-7.7-9.4-11.1-18.4-7.7-22c4.3-4.6,18.1,1.2,30.7,13c11,10.3,17.5,21.8,16.1,27.6c-0.8,5.9-10.9,14.4-24.8,20.1
				C776.2,235.4,761.3,236,758.9,230.1z"/>
		</defs>
		<clipPath id="SVGID_2_">
			<use xlink:href="#SVGID_1_"  style="overflow:visible;"/>
		</clipPath>
		<g class="st6">
			<circle class="st7" cx="817.5" cy="209" r="18.3"/>
		</g>
	</g>
	
		<ellipse transform="matrix(-0.3481 -0.9375 0.9375 -0.3481 952.6763 1051.2058)" class="st7" cx="841.8" cy="194.4" rx="40.7" ry="9.7"/>
	<path class="st4" d="M855.1,236.2c0,0,7.8,21.3,3.9,43.6"/>
	<path class="st8" d="M594.9,443.1L688,445c0,0,2.3-3.4,5.8-8.5l-109-2.7L594.9,443.1z"/>
	<path class="st0" d="M713.6,151.3c-16.5,18.6-34.1,22.7-34.1,22.7c-11.4-12.4-32-12.4-35.2,5.2C640.9,198.6,665,204,665,204
		s6.1,25.1-3.2,37.5c-8.2,11-18.8,12.8-40.4,15.2c28.2,47.7,57,43.9,66.6,43.9c23,0,29.5-26.7,31.3-40.5c-5.2-1.8-10.6-3.3-16-4.5
		l-3.1-18.6c0,0,14.5,5.2,26.9-2.1s15.5-20.7,11.4-41.4c-2.5-12.3-2.4-27.4-4.5-40.9C725.7,154.1,713.6,151.3,713.6,151.3z"/>
	<path class="st0" d="M885.7,255.1c-4.4-17.6-38.8-27.1-38.8-27.1s2.1-39.4-6.8-40.7c-6.8-1-13.6,15.5-19.4,47.5
		c-6.5,35.7-2.9,101.8-2.9,101.8s-7.2-6.5-17.4-15.6c-2.1,4.2-6.3,6.9-11,7c4.3,5.5,3.4,13.4-2.1,17.7c-2.2,1.7-4.8,2.6-7.5,2.7
		c4.3,5.5,3.4,13.4-2.1,17.7c-2.2,1.7-4.8,2.6-7.5,2.7c4.3,5.5,3.4,13.4-2.1,17.7c-2.5,2-5.7,2.9-8.9,2.7
		c21.2,13.8,50.1,29.9,69.3,29.9C929.3,418.9,888.6,266.7,885.7,255.1z"/>
	<path class="st1" d="M771.6,381.8c2-4.3,1.5-9.4-1.5-13.2c6.9-0.1,12.5-5.9,12.3-12.8c-0.1-2.7-1-5.4-2.7-7.5
		c6.9-0.1,12.5-5.9,12.3-12.8c-0.1-2.7-1-5.4-2.7-7.5c4.7-0.1,8.9-2.8,11-7c-17.6-15.7-44.1-38.9-58.2-49.3c-6.8-5-15.5-8.8-23-11.4
		c-1.8,13.8-8.2,40.5-31.2,40.5c-9.5,0-38.4,3.8-66.6-43.9l-9.1,1c-31.2,3.5-45.4,20.3-53.8,40.3c-5.2,12.4-9.3,35.2-9.3,35.2
		c-3.2,20.8-4.9,41.9-4.9,63l40.6,37.5l108.9,2.7c8.7-12.9,24.7-36.6,30-45.7c6.8-11.6,7.8-21.3,7.8-21.3s11.6,9.1,27.6,19.5
		C764.4,389.4,769.4,386.5,771.6,381.8z"/>
	<path class="st7" d="M725,128.5c-12.4-15.5-46.5-25.8-73.4-6.2s-24.8,51.7-23.8,64.1c0,0-28.9-9.3-49.6,12.4
		c-12.2,12.6-17.2,30.5-13.4,47.6c0,0-38.1-1.1-45.5,34.1c-4.2,20,3.6,33.3,12.4,41.6c5.1,4.8,11.1,8.6,17.6,11.2
		c0,0,4.1-22.7,9.3-35.2c8.4-20.1,22.6-36.9,53.8-40.3l9.1-1c21.6-2.4,32.2-4.3,40.4-15.2c9.3-12.4,3.2-37.5,3.2-37.5
		s-24.1-5.4-20.7-24.8c3.1-17.6,23.8-17.6,35.2-5.2c0,0,17.6-4.1,34.1-22.7c0,0,12.1,2.8,20.3,1.5C732.5,143.4,730,134.9,725,128.5z
		"/>
	<path class="st9" d="M887.8,268.9c-2.9-1.4-4.7-4.8-4.2-11.3c0,0-6.1,7.6-12.5,4.2s-3.9-10.7-3.9-10.7s-5.8,3.9-10.7-1
		c-4.4-4.4-1-11.6-1-11.6s-6.4,2.6-8.7-1.9c-2.9-5.7,0.6-11.7,4.4-16.3"/>
	<path class="st10" d="M562.9,247.2c1.1,5.2,3.1,10.1,5.8,14.6"/>
	<line class="st4" x1="815.9" y1="337.8" x2="818.3" y2="368"/>
	<path class="st4" d="M728.2,336c6.3,11.4,6.3,25.1,5.4,33.2"/>
	<line class="st4" x1="671" y1="368" x2="640" y2="369"/>
	<path class="st4" d="M699.6,239c-4.3-1.7-8.6-3.7-12.7-5.9"/>
	<line class="st4" x1="707.3" y1="267.7" x2="705.7" y2="257"/>
	<line class="st10" x1="625.7" y1="186.8" x2="627.9" y2="204.7"/>
	<path class="st4" d="M728.2,208.1c-2.2,1.4-9.5,1.9-12.9-4.4"/>
	<line class="st4" x1="670" y1="187.7" x2="660.3" y2="182.9"/>
	<path class="st4" d="M714.8,183.5c-1.5,2.1-8.9,6.2-14.4,1.5"/>
	<path class="st4" d="M738.3,180.4c-2.3,0.5-4.8,0-6.8-1.3"/>
	<path class="st4" d="M725.2,184c1.1,2.5,2.2,5.3,2,6.3c-0.3,1.3-1.1,2.4-2.2,3.2"/>
	<path class="st11" d="M664.7,199.5l-13.2,12.5c-2.3,2.2-2.4,5.8-0.2,8.1c0.6,0.7,1.4,1.2,2.2,1.5l15.6,5.5c3,1.1,6.3-0.5,7.4-3.5
		c0.3-0.9,0.4-1.8,0.3-2.7l-2.4-18c-0.4-3.2-3.3-5.4-6.5-4.9C666.7,198.1,665.6,198.6,664.7,199.5z"/>
	<path class="st0" d="M854.7,202.8c0,0,6.8-3.9,12.6-1.9c9,3,7.7,11.4,7.7,11.4s12.6-4.5,15.1,8.8c0,0,11.4,2.5,8.8,13.9
		c0,0,9.2,0.5,7.4,12.6s-9.9,22.1-14.7,22.1c-5,0-8.5-3.1-7.8-12c0,0-6.1,7.6-12.5,4.2s-3.9-10.7-3.9-10.7s-5.8,3.9-10.7-1
		c-4.4-4.4-1-11.6-1-11.6s-6.4,2.6-8.7-1.9c-4.8-9.7,8.5-20.1,10.7-23.3L854.7,202.8z"/>
	<path class="st4" d="M851.8,242c6.7-6.1,18-17.6,23.4-29.7"/>
	<path class="st4" d="M864,256c11.1-9.4,20.1-21,26.5-34"/>
	<path class="st4" d="M881.1,263.2c3-3.7,13.5-16.8,18.7-27.2"/>
	<path class="st7" d="M879.3,485.8H711.4l38.2-120.5c2.3-7.3,9.1-12.2,16.7-12.2h141.8c9.7,0,17.5,7.8,17.5,17.5
		c0,1.8-0.3,3.6-0.8,5.3l-31.5,99.7C891.3,481.6,885.7,485.7,879.3,485.8z"/>
	<path class="st7" d="M614,472.2c-1.7,5.5,1.3,11.3,6.8,13.1c1,0.3,2.1,0.5,3.1,0.5h255.3c6.4,0,12.1-4.2,14-10.3l1-3.3H614z"/>
	<path class="st1" d="M853.5,409c-3.9-5.3-21.6,8.8-22.9,9.9c-0.7-1.2-9.9-15.3-16.7-9.9c-5.9,4.6,7,25.3,10.5,30.6
		c0.6,0.6,1.5,0.7,2.2,0.1c0,0,0.1-0.1,0.1-0.1C833,434.3,856.9,413.6,853.5,409z"/>
	
		<ellipse transform="matrix(-0.9548 -0.2974 0.2974 -0.9548 1511.2988 1038.6919)" class="st1" cx="834.7" cy="404.4" rx="2.8" ry="8.6"/>
	<path class="st1" d="M517.8,376.5c4.4,1.7,9.5,0.8,13-2.4c0.6,6.9,6.7,12,13.6,11.4c2.7-0.2,5.3-1.4,7.4-3.2
		c0.6,6.9,6.7,12,13.7,11.4c2.7-0.2,5.3-1.4,7.3-3.2c0.6,6.9,6.7,12,13.6,11.4c0.8-0.1,1.6-0.2,2.3-0.4l15.1-40.6
		c5.8-15.6,8.6-32.2,8.1-48.8l-1.5-54c0,0-34.9,2.9-55.2,28.1c-10.4,12.9-30.9,47.1-44.1,84.2C512.5,373.1,514.9,375.3,517.8,376.5z
		"/>
	<path class="st0" d="M580.8,401c-4.5-1.7-7.6-5.8-8-10.6c-5.1,4.7-13.1,4.3-17.8-0.8c-1.8-2-3-4.6-3.2-7.3
		c-5.1,4.7-13.1,4.3-17.8-0.8c-1.9-2-3-4.6-3.2-7.4c-5.1,4.7-13.1,4.3-17.8-0.8c-0.8-0.9-1.4-1.8-2-2.9
		c-11.4,32.2-17.2,66.6-6.2,91.4c23.7,53.4,94.9,34.6,111.7,29.7s49.4-21.8,71.2-18.8s46.5,13.8,50.4,0c0,0,13.3-0.3,9.1-13
		c0,0,6.7-0.8,7.7-5.8c2-9.9-21.8-18.8-21.8-18.8s18.8,3,22.7-1c5-5,0.1-13.1-30.5-20.5c-33.7-8.2-78.2-3.2-144.4,8.6l7.8-20.8
		C586.1,402.1,583.3,402,580.8,401z"/>
	<line class="st4" x1="604.1" y1="355.4" x2="582" y2="420"/>
	<path class="st4" d="M739.2,435.8c-10.7-4.1-28.6-10.3-42.5-12.6"/>
	<path class="st4" d="M747.6,459.1c-13.8-6.2-40.2-17.5-54.3-19.6"/>
	<path class="st4" d="M581.1,420.1c-7.4,1.2-19.1,3.2-30.8,5.5"/>
	<path class="st4" d="M737.8,474c-10.3-5.3-32.2-15.8-47.5-18.7"/>
</g>
</svg>
